<?xml version="1.0" encoding="utf-8"?>
<!-- Generator: Adobe Illustrator 24.3.0, SVG Export Plug-In . SVG Version: 6.00 Build 0)  -->
<svg version="1.1" id="Layer_1" xmlns="http://www.w3.org/2000/svg" xmlns:xlink="http://www.w3.org/1999/xlink" x="0px" y="0px"
	 viewBox="0 0 244.2 172.4" style="enable-background:new 0 0 244.2 172.4;" xml:space="preserve">
<style type="text/css">
	.st0{clip-path:url(#SVGID_2_);}
	.st1{fill:#0652E9;}
	.st2{clip-path:url(#SVGID_4_);}
	.st3{fill:#62E1E9;}
	.st4{fill:#FFFFFF;}
</style>
<g>
	<defs>
		<rect id="SVGID_1_" x="31.3" y="42" width="91.6" height="80"/>
	</defs>
	<clipPath id="SVGID_2_">
		<use xlink:href="#SVGID_1_"  style="overflow:visible;"/>
	</clipPath>
	<g class="st0">
		<path class="st1" d="M92.6,98.6v11L42.4,86.4v-9l50.2-23.2v11L54.6,81.9v0.2L92.6,98.6z M122.4,42H38.5c-4,0-7.2,3.2-7.2,7.2v65.7
			c0,3.9,3.2,7.2,7.2,7.2h60.6L122.4,42"/>
	</g>
</g>
<g>
	<defs>
		<rect id="SVGID_3_" x="121.5" width="91.7" height="80.6"/>
	</defs>
	<clipPath id="SVGID_4_">
		<use xlink:href="#SVGID_3_"  style="overflow:visible;"/>
	</clipPath>
	<g class="st2">
		<path class="st3" d="M202.2,44.8L152,67.7v-11l38.8-16.6v-0.2L152,23.4v-11l50.2,22.9V44.8z M145.6,0l-23.3,80h83.8
			c4,0,7.2-3.2,7.2-7.2V7.2c0-3.9-3.2-7.2-7.2-7.2H145.6"/>
	</g>
</g>
<g>
	<g transform="translate(94.558156, 237.534858)">
		<g>
			<path class="st4" d="M-80.2-65.1c5.6,0,10.4-3.1,12.7-7.7l-5.3-2.8c-1.3,2.7-4.1,4.4-7.4,4.4c-4.7,0-8.3-3.6-8.3-8.4
				s3.6-8.3,8.3-8.3c3.3,0,6.1,1.8,7.4,4.4l5.3-2.8c-2.4-4.6-7.2-7.7-12.7-7.7c-7.9,0-14.4,6.4-14.4,14.4S-88.1-65.1-80.2-65.1z"/>
		</g>
	</g>
</g>
<g>
	<g transform="translate(118.32704, 237.534858)">
		<g>
			<path class="st4" d="M-72.3-65.1c8,0,14.4-6.4,14.4-14.4s-6.4-14.4-14.4-14.4c-7.9,0-14.4,6.4-14.4,14.4S-80.2-65.1-72.3-65.1z
				 M-72.3-71.2c-4.7,0-8.3-3.6-8.3-8.4s3.6-8.3,8.3-8.3c4.8,0,8.4,3.6,8.4,8.3S-67.5-71.2-72.3-71.2z"/>
		</g>
	</g>
</g>
<g>
	<g transform="translate(143.740687, 237.534858)">
		<g>
			<path class="st4" d="M-77.1-65.5h9.2c7.7,0,14-6.3,14-14s-6.3-14-14-14h-9.2V-65.5z M-71-71v-17.1h3c4.4,0,7.9,3.7,7.9,8.5
				s-3.5,8.5-7.9,8.5H-71z"/>
		</g>
	</g>
</g>
<g>
	<g transform="translate(165.759817, 237.534858)">
		<g>
			<path class="st4" d="M-52.7-88.1v-5.4h-16.8v28h16.8v-5.4h-10.7v-5.9h9.1v-5.4h-9.1v-5.9H-52.7z"/>
		</g>
	</g>
</g>
<g>
	<g transform="translate(183.299568, 237.534858)">
		<g>
			<path class="st4" d="M-55.3-65.1c5.2,0,9.7-3.1,9.7-8.3c0-10.4-12.9-7.8-12.9-12.6c0-1.6,1.2-2.3,2.7-2.3c1.6,0,3.2,0.9,4.6,2.4
				l4.1-3.9c-2.1-2.4-5.2-4-8.6-4c-4.4,0-9,2.7-9,8.3c0,9.5,12.9,7.2,12.9,12.1c0,1.5-1.3,2.6-3.5,2.6c-2.6,0-4.6-1.4-5.6-3.6
				l-5.1,3.2C-64.1-67.9-60.2-65.1-55.3-65.1z"/>
		</g>
	</g>
</g>
<g>
	<g transform="translate(201.119271, 237.534858)">
		<g>
			<path class="st4" d="M-44.7-65.1c5.6,0,10.4-3.1,12.7-7.7l-5.3-2.8c-1.3,2.7-4.1,4.4-7.4,4.4c-4.7,0-8.3-3.6-8.3-8.4
				s3.6-8.3,8.3-8.3c3.3,0,6.1,1.8,7.4,4.4l5.3-2.8c-2.4-4.6-7.2-7.7-12.7-7.7c-7.9,0-14.4,6.4-14.4,14.4S-52.6-65.1-44.7-65.1z"/>
		</g>
	</g>
</g>
<g>
	<g transform="translate(224.888156, 237.534858)">
		<g>
			<path class="st4" d="M-33-65.5h6.6l-10.1-28h-6.9l-10.1,28h6.6l1.7-5.3h10.5L-33-65.5z M-43.5-75.9l3.6-11.1l3.6,11.1H-43.5z"/>
		</g>
	</g>
</g>
<g>
	<g transform="translate(245.507479, 237.534858)">
		<g>
			<path class="st4" d="M-31.3-93.5h-11.9v28h6.2v-11.3h5.7c4.7,0,8.4-3.5,8.4-8.2C-23-89.7-26.6-93.5-31.3-93.5z M-32.3-81.9h-4.8
				v-6.2h4.8c2,0,3.5,1.3,3.5,3.1C-28.8-83.2-30.3-81.9-32.3-81.9z"/>
		</g>
	</g>
</g>
<g>
	<g transform="translate(264.132073, 237.534858)">
		<g>
			<path class="st4" d="M-19.9-88.1v-5.4h-16.8v28h16.8v-5.4h-10.7v-5.9h9.1v-5.4h-9.1v-5.9H-19.9z"/>
		</g>
	</g>
</g>
</svg>
