<?xml version="1.0" standalone="no"?>
<!DOCTYPE svg PUBLIC "-//W3C//DTD SVG 20010904//EN"
 "http://www.w3.org/TR/2001/REC-SVG-20010904/DTD/svg10.dtd">
<svg version="1.0" xmlns="http://www.w3.org/2000/svg"
 width="1456.000000pt" height="1456.000000pt" viewBox="0 0 1456.000000 1456.000000"
 preserveAspectRatio="xMidYMid meet">
<metadata>
Created by potrace 1.14, written by Peter Selinger 2001-2017
</metadata>
<g transform="translate(0.000000,1456.000000) scale(0.100000,-0.100000)"
fill="#000000" stroke="none">
<path d="M9139 12153 c-2 -26 -4 -33 -76 -267 -13 -43 -25 -86 -27 -95 -2 -9
-6 -23 -9 -31 -3 -8 -9 -28 -13 -45 -10 -41 -11 -45 -14 -47 -1 -2 -3 -10 -5
-18 -8 -32 -47 -166 -52 -180 -3 -8 -7 -19 -8 -25 -1 -5 -3 -12 -4 -15 -2 -3
-4 -12 -6 -20 -2 -8 -13 -46 -25 -85 -11 -38 -22 -77 -25 -85 -12 -44 -79
-274 -96 -330 -11 -36 -22 -76 -25 -89 -3 -13 -13 -48 -24 -78 -10 -29 -17
-53 -15 -53 2 0 -4 -24 -14 -52 -17 -51 -21 -61 -26 -83 -1 -5 -11 -37 -21
-70 -10 -33 -17 -63 -16 -67 1 -4 -5 -23 -13 -42 -9 -20 -13 -36 -10 -36 3 0
1 -9 -5 -21 -7 -11 -14 -33 -16 -47 -3 -15 -12 -47 -20 -72 -15 -43 -18 -55
-28 -100 -3 -11 -7 -24 -10 -28 -3 -5 -7 -19 -10 -33 -3 -13 -18 -68 -35 -122
-16 -54 -29 -99 -29 -100 -1 -5 -10 -35 -21 -69 -7 -20 -14 -45 -16 -55 -2
-10 -8 -29 -13 -43 -5 -14 -9 -27 -9 -30 0 -5 -31 -113 -41 -140 -3 -8 -6 -19
-7 -25 -1 -5 -3 -12 -4 -15 -2 -3 -4 -13 -6 -22 -3 -15 -24 -87 -56 -193 -5
-16 -9 -32 -8 -35 0 -3 -5 -18 -11 -35 -7 -16 -18 -52 -25 -80 -19 -74 -55
-198 -62 -215 -3 -8 -7 -20 -9 -27 -2 -10 -33 -124 -50 -181 -2 -7 -4 -14 -4
-17 0 -3 -6 -21 -14 -40 -9 -20 -15 -38 -15 -40 -1 -13 -15 -66 -31 -120 -33
-107 -64 -210 -66 -220 -1 -5 -8 -30 -15 -55 -15 -54 -14 -51 -21 -70 -3 -8
-22 -71 -41 -140 -20 -69 -48 -165 -62 -215 -15 -49 -29 -97 -31 -105 -2 -8
-11 -40 -19 -70 -9 -30 -18 -63 -20 -73 -2 -9 -6 -21 -9 -25 -3 -5 -7 -19 -10
-33 -3 -13 -22 -78 -42 -144 -19 -66 -37 -124 -38 -130 -1 -5 -10 -37 -20 -70
-10 -33 -20 -67 -21 -75 -2 -8 -4 -15 -5 -15 -2 0 -9 -28 -12 -50 -2 -11 -6
-22 -10 -25 -3 -3 -8 -18 -11 -35 -2 -16 -11 -46 -19 -65 -8 -19 -13 -41 -11
-47 3 -7 0 -13 -7 -13 -6 0 -8 -4 -5 -10 3 -5 3 -16 -2 -22 -4 -7 -9 -20 -10
-28 -2 -13 -99 -346 -135 -465 -7 -22 -13 -44 -14 -50 0 -5 -4 -17 -7 -25 -3
-8 -11 -35 -18 -60 -16 -58 -15 -57 -33 -115 -8 -27 -23 -81 -35 -120 -11 -38
-23 -79 -27 -89 -5 -14 -4 -17 4 -12 7 4 12 2 12 -4 0 -8 6 -8 20 0 14 8 20 8
20 0 0 -7 6 -8 19 0 14 7 22 7 26 0 5 -8 11 -8 20 0 9 7 15 8 19 1 5 -7 15 -7
31 -1 17 6 25 6 25 -1 0 -6 6 -7 17 0 10 5 26 5 40 0 14 -5 23 -5 23 1 0 6 9
6 24 0 15 -5 27 -5 34 2 6 6 12 6 16 0 3 -5 22 -6 45 -2 22 4 44 3 49 -2 6 -6
12 -6 16 1 5 7 15 7 31 1 16 -6 25 -6 25 1 0 6 6 6 18 0 11 -6 24 -6 32 -1 9
5 19 5 26 -1 8 -7 14 -6 19 1 4 7 12 7 25 0 13 -7 21 -7 25 0 4 6 12 7 22 1 9
-5 29 -5 44 -1 16 5 31 4 37 -2 6 -6 12 -6 16 1 5 7 15 7 31 1 16 -6 25 -6 25
1 0 6 6 6 18 0 11 -6 24 -6 32 -1 9 5 19 5 26 -1 8 -7 14 -6 19 1 4 7 12 7 25
0 13 -7 21 -7 25 0 4 6 12 7 22 1 9 -5 29 -5 44 -1 16 5 31 4 37 -2 6 -6 12
-6 16 1 5 7 15 7 31 1 16 -6 25 -6 25 1 0 6 6 6 18 0 11 -6 24 -6 32 -1 9 5
19 5 26 -1 8 -7 14 -6 19 1 4 7 12 7 25 0 13 -7 21 -7 25 0 4 6 12 7 22 1 9
-5 29 -5 44 -1 16 5 31 4 37 -2 6 -6 12 -6 16 1 5 7 15 7 31 1 16 -6 25 -6 25
1 0 6 6 6 18 0 11 -6 24 -6 32 -1 9 5 19 5 26 -1 8 -7 14 -6 19 1 4 7 12 7 25
0 13 -7 21 -7 25 0 4 7 14 6 28 -2 12 -6 24 -10 27 -9 3 2 13 7 23 12 11 7 17
6 17 -1 0 -8 6 -8 20 0 14 8 20 8 20 0 0 -8 6 -8 20 0 14 8 20 8 20 0 0 -6 5
-8 11 -5 16 11 69 12 69 3 0 -5 9 -4 19 2 13 7 22 7 26 0 4 -7 13 -7 26 0 10
6 19 7 19 3 0 -4 14 -8 30 -8 17 0 30 4 30 8 0 4 9 3 19 -3 13 -7 22 -7 26 0
4 7 12 7 25 0 13 -7 21 -7 25 0 4 6 12 7 18 3 17 -10 47 -11 47 -1 0 5 9 4 20
-2 14 -8 20 -8 20 0 0 8 6 8 20 0 14 -8 20 -8 20 0 0 8 6 8 20 0 12 -6 20 -7
20 -1 0 10 25 9 36 -2 4 -4 13 -2 20 4 8 7 14 7 18 0 5 -7 15 -7 31 -1 17 6
25 6 25 -1 0 -6 6 -7 17 0 10 5 26 5 40 0 14 -5 23 -5 23 1 0 6 9 6 25 0 15
-6 26 -6 30 1 4 5 12 6 18 2 16 -10 48 -10 70 0 10 5 17 4 17 -3 0 -8 6 -8 20
0 14 8 20 8 20 0 0 -8 6 -8 20 0 14 8 20 8 20 0 0 -6 5 -8 11 -5 16 11 69 12
69 3 0 -5 9 -4 19 2 13 7 22 7 26 0 4 -7 13 -7 26 0 10 6 19 7 19 3 0 -4 14
-8 30 -8 17 0 30 4 30 8 0 4 9 3 19 -3 13 -7 22 -7 26 0 4 7 12 7 25 0 13 -7
21 -7 25 0 4 6 12 7 18 3 17 -10 47 -11 47 -1 0 5 9 4 20 -2 14 -8 20 -8 20 0
0 8 6 8 20 0 14 -8 20 -8 20 0 0 8 6 8 20 0 12 -6 20 -7 20 -1 0 10 25 9 36
-2 4 -4 13 -2 20 4 8 7 14 7 18 0 5 -7 15 -7 31 -1 17 6 25 6 25 -1 0 -6 6 -7
17 0 10 5 26 5 40 0 14 -5 23 -5 23 1 0 6 9 6 25 0 15 -6 26 -6 30 1 4 5 12 6
18 2 16 -10 48 -10 70 0 10 5 17 4 17 -3 0 -8 6 -8 20 0 14 8 20 8 20 0 0 -8
6 -8 20 0 14 8 20 8 20 0 0 -6 5 -8 11 -5 16 11 69 12 69 3 0 -5 9 -4 19 2 13
7 22 7 26 0 4 -7 13 -7 26 0 12 7 19 7 19 1 0 -6 11 -6 30 -1 19 5 30 5 30 -1
0 -6 7 -6 19 1 14 7 22 7 26 0 5 -8 11 -8 20 0 7 6 16 7 19 2 5 -9 59 -8 75 3
6 3 11 1 11 -5 0 -8 6 -8 20 0 14 8 20 8 20 0 0 -8 6 -8 20 0 14 8 20 8 20 0
0 -7 7 -8 18 -3 21 10 53 10 69 0 6 -4 14 -3 18 2 4 7 15 7 30 1 16 -6 25 -6
25 1 0 6 6 6 18 0 11 -6 24 -6 32 -1 9 5 19 5 26 -1 8 -7 14 -6 19 1 4 7 12 7
25 0 13 -7 21 -7 25 0 4 6 12 7 22 1 9 -5 29 -5 44 -1 16 5 31 4 37 -2 6 -6
12 -6 16 1 5 7 15 7 31 1 16 -6 25 -6 25 1 0 6 6 6 18 0 11 -6 24 -6 32 -1 9
5 19 5 26 -1 8 -7 14 -6 19 1 4 7 12 7 25 0 13 -7 21 -7 25 0 4 6 12 7 22 1 9
-5 29 -5 44 -1 16 5 31 4 37 -2 6 -6 12 -6 16 1 5 7 15 7 31 1 16 -6 25 -6 25
1 0 6 6 6 18 0 11 -6 24 -6 32 -1 9 5 19 5 26 -1 8 -7 14 -6 19 1 4 7 12 7 25
0 13 -7 21 -7 25 0 4 6 12 7 22 1 9 -5 29 -5 44 -1 16 5 31 4 37 -2 6 -6 12
-6 16 1 5 7 15 7 31 1 16 -6 25 -6 25 1 0 6 6 6 18 0 11 -6 24 -6 32 -1 9 5
19 5 26 -1 8 -7 14 -6 19 1 4 7 12 7 25 0 13 -7 21 -7 25 0 4 6 13 7 23 1 11
-6 24 -6 34 0 11 6 19 5 23 -1 5 -8 11 -8 20 0 9 7 15 8 19 1 5 -7 15 -7 31
-1 17 6 25 6 25 -1 0 -6 6 -7 17 0 10 5 26 5 40 0 14 -5 23 -5 23 1 0 6 9 6
25 0 15 -6 26 -6 30 1 4 5 12 6 18 2 16 -10 48 -10 70 0 10 5 17 4 17 -3 0 -8
6 -8 20 0 14 8 20 8 20 0 0 -8 6 -8 20 0 14 8 20 8 20 0 0 -6 5 -8 11 -5 16
11 69 12 69 3 0 -5 9 -4 19 2 13 7 22 7 26 0 4 -7 13 -7 26 0 10 6 19 7 19 3
0 -4 14 -8 30 -8 17 0 30 4 30 8 0 4 9 3 19 -3 13 -7 22 -7 26 0 4 7 12 7 25
0 13 -7 21 -7 25 0 4 6 12 7 18 3 17 -10 47 -11 47 -1 0 5 9 4 20 -2 14 -8 20
-8 20 0 0 8 6 8 20 0 14 -8 20 -8 20 0 0 8 6 8 20 0 12 -6 20 -7 20 -1 0 10
25 9 36 -2 4 -4 13 -2 20 4 8 7 14 7 18 0 5 -7 15 -7 31 -1 17 6 25 6 25 -1 0
-6 6 -7 17 0 10 5 26 5 40 0 14 -5 23 -5 23 1 0 6 9 6 25 0 14 -5 25 -6 25 -2
0 4 15 7 33 7 46 -2 120 20 205 61 132 64 245 201 287 347 15 54 17 270 17
2790 0 1892 -4 2740 -11 2760 -6 15 -9 27 -6 27 2 0 -6 21 -17 48 -80 182
-228 307 -413 348 -49 11 -506 13 -2512 14 -1349 0 -2453 -3 -2454 -7z m644
-1044 c31 -15 57 -25 57 -22 0 3 8 -1 18 -10 9 -8 20 -16 25 -16 9 0 49 -18
164 -72 45 -22 84 -39 86 -39 2 0 44 -19 93 -42 49 -23 91 -43 94 -43 3 -1 28
-11 55 -24 28 -13 77 -36 110 -51 33 -15 85 -39 115 -53 53 -24 109 -50 215
-97 28 -13 92 -42 143 -66 52 -24 95 -44 97 -44 2 0 38 -17 82 -37 43 -21 81
-36 86 -35 4 1 7 -3 7 -10 0 -6 3 -9 6 -6 3 3 41 -12 85 -33 44 -21 82 -39 84
-39 3 0 53 -23 112 -51 60 -28 113 -51 118 -52 6 -1 12 -4 15 -8 3 -3 30 -16
60 -28 30 -13 87 -38 125 -56 39 -18 102 -47 140 -65 118 -55 140 -64 148 -62
4 1 7 -2 7 -7 0 -5 20 -15 45 -22 25 -7 45 -17 45 -21 0 -4 4 -8 10 -8 5 0 35
-12 67 -27 32 -15 60 -27 63 -28 3 0 41 -18 85 -39 44 -20 103 -47 130 -59 28
-11 53 -25 56 -30 3 -5 10 -9 15 -9 14 -1 96 -35 229 -98 56 -26 84 -39 225
-103 30 -14 95 -44 143 -66 49 -23 90 -41 92 -41 2 0 45 -20 97 -43 51 -24
126 -59 166 -77 39 -18 72 -36 73 -39 0 -10 1 -651 0 -707 l-1 -50 -52 -24
c-108 -47 -204 -91 -230 -105 -14 -8 -33 -15 -42 -15 -9 0 -16 -4 -16 -10 0
-5 -6 -10 -13 -10 -7 0 -35 -11 -63 -24 -27 -13 -74 -35 -104 -49 -30 -13 -95
-43 -143 -66 -49 -22 -91 -41 -94 -41 -3 0 -52 -22 -110 -50 -58 -27 -106 -50
-108 -50 -2 0 -55 -24 -118 -54 -63 -29 -130 -60 -151 -67 -20 -7 -36 -17 -36
-21 0 -4 -3 -7 -7 -6 -5 1 -21 -5 -38 -12 -16 -7 -32 -14 -35 -15 -3 -1 -30
-13 -60 -27 -92 -44 -204 -94 -215 -97 -5 -2 -19 -8 -30 -14 -11 -6 -22 -12
-25 -12 -14 -3 -66 -31 -71 -38 -3 -5 -8 -7 -10 -5 -2 1 -42 -15 -89 -36 -47
-22 -87 -40 -90 -41 -3 0 -20 -9 -37 -18 -18 -10 -36 -18 -40 -19 -9 -2 -98
-42 -208 -93 -38 -18 -92 -42 -120 -55 -27 -12 -79 -36 -115 -53 -36 -16 -71
-30 -77 -30 -7 0 -13 -3 -13 -7 0 -4 -18 -13 -40 -20 -22 -7 -40 -17 -40 -22
0 -4 -6 -8 -12 -8 -7 0 -35 -11 -63 -25 -27 -13 -53 -25 -57 -25 -3 0 -53 -22
-110 -49 -56 -26 -125 -59 -153 -71 -27 -13 -52 -24 -55 -25 -3 0 -32 -13 -65
-29 -160 -76 -183 -86 -188 -86 -3 0 -57 -25 -122 -55 -64 -30 -118 -55 -120
-55 -4 0 -187 -85 -228 -106 -16 -7 -35 -14 -43 -14 -8 0 -14 -4 -14 -10 0 -5
-5 -10 -11 -10 -5 0 -35 -11 -65 -25 -30 -14 -58 -25 -62 -25 -5 0 -8 845 -3
870 1 5 8 9 140 65 47 20 99 42 115 49 17 8 92 40 166 71 141 59 162 69 297
129 45 20 85 36 88 36 3 0 24 9 48 19 64 30 441 192 452 195 10 3 62 25 130
55 22 10 101 44 175 75 74 32 149 64 165 71 17 7 59 25 95 40 36 15 79 33 95
40 46 21 110 48 230 99 61 26 124 53 140 61 17 7 91 38 165 70 74 31 147 63
162 71 14 8 33 14 42 14 9 0 16 5 16 12 0 6 3 8 7 5 3 -4 11 -3 17 2 6 5 28
14 49 20 20 7 37 17 37 22 0 6 5 7 10 4 6 -4 16 -3 23 3 7 5 59 28 117 53 102
42 127 58 112 70 -4 3 -34 16 -67 29 -33 13 -65 27 -71 32 -6 4 -14 5 -17 1
-4 -3 -7 -1 -7 5 0 7 -5 12 -12 12 -10 0 -212 84 -363 150 -22 10 -69 30 -105
44 -36 15 -73 31 -82 36 -10 6 -25 10 -33 10 -8 0 -15 5 -15 10 0 6 -7 10 -15
10 -9 0 -45 14 -80 30 -35 17 -71 30 -80 30 -8 0 -15 4 -15 10 0 5 -17 14 -38
19 -20 6 -60 22 -89 35 -28 14 -63 28 -77 32 -14 3 -26 10 -26 15 0 5 -3 8 -7
8 -5 -1 -11 0 -15 1 -5 1 -11 3 -15 4 -5 1 -29 12 -55 24 -26 12 -49 22 -51
22 -3 0 -25 9 -51 20 -25 12 -48 21 -51 20 -3 0 -22 9 -42 20 -21 11 -41 20
-45 20 -3 0 -35 13 -70 29 -35 16 -101 45 -148 64 -47 20 -103 43 -125 53 -22
10 -42 18 -45 19 -3 1 -18 8 -35 15 -16 7 -32 14 -35 15 -3 1 -22 9 -42 18
-21 10 -40 17 -43 17 -3 0 -24 9 -48 20 -97 44 -303 132 -321 135 -11 3 -23
10 -28 17 -4 7 -8 10 -8 6 0 -4 -26 5 -57 19 -65 28 -108 46 -155 67 -153 64
-219 92 -265 112 -21 9 -54 23 -73 31 -84 36 -75 -21 -75 472 l0 438 35 -15
c19 -8 61 -27 93 -43z"/>
<path d="M607 8803 c-3 -3 -37 -7 -74 -9 -81 -4 -90 -6 -168 -35 -74 -28 -146
-77 -205 -140 -78 -82 -102 -126 -148 -264 -4 -11 -8 -1244 -9 -2741 -3 -2376
-1 -2727 12 -2770 8 -27 14 -49 14 -49 -1 0 21 -59 28 -75 3 -8 5 -18 5 -22
-1 -5 2 -8 8 -8 5 0 16 -15 25 -33 22 -47 112 -136 173 -172 17 -11 32 -24 32
-29 0 -5 3 -7 6 -4 3 4 31 -6 62 -20 l57 -27 2501 -3 2502 -2 6 25 c4 14 6 26
6 27 0 2 7 26 16 53 45 146 104 356 104 369 0 9 4 16 10 16 5 0 7 7 4 15 -4 8
-1 15 6 15 6 0 9 4 6 9 -3 4 -1 21 3 37 20 66 113 380 116 394 2 8 4 16 5 18
2 1 3 5 4 10 2 4 8 27 16 52 7 25 15 54 17 64 2 11 8 25 13 31 5 7 7 14 4 17
-3 3 2 22 10 42 8 20 13 36 11 36 -3 0 0 12 6 28 6 15 13 36 15 47 2 11 13 48
24 82 11 34 21 70 23 80 1 10 6 24 11 31 4 7 10 25 12 40 3 15 20 79 40 142
19 63 37 125 40 137 2 12 8 33 13 45 5 13 9 26 10 31 1 12 31 117 47 167 15
49 81 276 94 325 4 17 13 42 19 58 6 15 8 27 6 27 -3 0 5 24 16 53 11 28 20
53 19 55 -4 6 13 68 22 80 6 6 8 12 5 12 -4 0 0 18 8 40 8 22 12 40 8 40 -3 0
0 7 7 15 7 8 10 15 6 15 -3 0 -1 12 5 28 6 15 12 34 14 42 2 8 15 53 30 100
14 47 28 94 30 105 3 11 16 56 29 100 21 66 42 139 52 178 1 4 2 8 4 10 1 1 3
9 5 17 1 8 19 71 40 140 74 255 98 335 99 345 1 6 5 16 9 23 5 6 6 16 2 21 -3
5 -1 12 4 15 4 3 12 20 16 38 4 18 9 38 10 44 2 6 15 51 30 99 15 49 29 96 30
105 2 8 13 47 25 85 11 39 28 93 36 120 8 28 17 59 19 71 3 12 11 40 19 63 9
22 13 41 9 41 -3 0 0 7 7 15 7 8 9 15 6 15 -4 0 -2 8 3 19 6 10 13 33 16 52 3
19 10 38 15 43 5 5 6 15 3 22 -3 8 0 14 7 14 6 0 9 4 6 8 -2 4 9 53 26 107 16
55 31 105 32 110 11 44 30 107 41 140 8 22 17 51 19 65 2 14 9 38 15 54 7 16
9 31 6 34 -2 3 -1 10 3 16 8 11 42 112 46 138 1 7 5 19 10 26 4 7 5 16 2 19
-3 3 1 18 10 34 8 16 14 30 13 31 -1 3 19 83 26 106 3 7 5 16 7 20 1 4 12 43
26 87 28 94 40 137 76 265 15 52 34 115 41 140 19 63 62 212 66 230 3 12 -9
15 -63 15 -38 0 -68 4 -68 8 0 5 -6 5 -12 0 -18 -10 -218 -10 -218 1 0 5 -6 4
-12 -1 -7 -5 -38 -7 -68 -6 -30 2 -61 3 -67 3 -7 0 -33 0 -58 0 -25 0 -52 0
-60 0 -8 0 -35 0 -60 0 -25 0 -52 0 -60 0 -8 0 -35 0 -60 0 -25 0 -52 0 -60 0
-8 0 -35 0 -60 0 -25 0 -52 0 -60 0 -8 0 -35 0 -60 0 -25 0 -52 0 -60 0 -8 0
-35 0 -60 0 -25 0 -52 0 -60 0 -8 0 -35 0 -60 0 -25 0 -52 0 -60 0 -8 0 -35 0
-60 0 -25 0 -51 0 -57 0 -7 0 -33 -1 -58 -3 -25 -2 -52 1 -61 5 -9 4 -19 4
-23 1 -10 -10 -126 -10 -126 1 0 5 -6 4 -12 -1 -11 -8 -135 -10 -163 -3 -5 1
-12 1 -15 0 -16 -7 -130 -4 -130 4 0 5 -5 4 -12 -1 -7 -5 -62 -8 -123 -6 -60
2 -114 3 -120 3 -5 0 -36 -1 -67 -3 -32 -1 -58 1 -58 6 0 4 -5 5 -12 1 -17
-11 -138 -11 -138 -1 0 5 -5 5 -12 1 -17 -11 -108 -11 -108 -1 0 5 -5 5 -12 1
-17 -11 -108 -11 -108 0 0 5 -6 4 -12 -1 -7 -5 -38 -7 -68 -6 -30 2 -61 3 -67
3 -7 0 -33 0 -58 0 -25 0 -51 0 -57 0 -7 0 -38 -1 -68 -3 -30 -1 -61 1 -67 6
-7 5 -13 6 -13 1 0 -11 -91 -11 -108 0 -7 4 -12 4 -12 -1 0 -4 -51 -7 -112 -5
-62 1 -117 2 -123 2 -5 0 -36 -1 -67 -3 -32 -1 -58 1 -58 6 0 4 -5 5 -12 1
-17 -11 -138 -11 -138 -1 0 5 -5 5 -12 1 -17 -11 -108 -11 -108 -1 0 5 -5 5
-12 1 -17 -11 -108 -11 -108 0 0 5 -6 4 -12 -1 -7 -5 -38 -7 -68 -6 -30 2 -61
3 -67 3 -7 0 -33 0 -58 0 -25 0 -51 0 -57 0 -7 0 -38 -1 -68 -3 -30 -1 -61 1
-67 6 -7 5 -13 6 -13 1 0 -11 -91 -11 -108 0 -7 4 -12 4 -12 -1 0 -4 -51 -7
-112 -5 -62 1 -117 2 -123 2 -5 0 -36 -1 -67 -3 -32 -1 -58 1 -58 6 0 4 -5 5
-12 1 -17 -11 -138 -11 -138 -1 0 5 -5 5 -12 1 -17 -11 -108 -11 -108 -1 0 5
-5 5 -12 1 -17 -11 -108 -11 -108 0 0 5 -6 4 -12 -1 -7 -5 -38 -7 -68 -6 -30
2 -61 3 -67 3 -7 0 -33 0 -58 0 -25 0 -51 0 -57 0 -7 0 -38 -1 -68 -3 -30 -1
-61 1 -67 6 -7 5 -13 6 -13 1 0 -11 -91 -11 -108 0 -7 4 -12 4 -12 -1 0 -4
-51 -7 -112 -5 -62 1 -117 2 -123 2 -5 0 -36 -1 -67 -3 -32 -1 -58 1 -58 6 0
4 -5 5 -12 1 -17 -11 -138 -11 -138 -1 0 5 -5 5 -12 1 -17 -11 -108 -11 -108
-1 0 5 -6 5 -12 0 -17 -10 -67 -11 -94 -1 -12 4 -24 4 -27 1z m4298 -1423 l0
-434 -75 -34 c-41 -18 -91 -41 -110 -49 -19 -9 -41 -16 -47 -16 -7 0 -13 -4
-13 -8 0 -8 -40 -24 -52 -21 -5 1 -8 -3 -8 -9 0 -5 -4 -8 -9 -5 -5 3 -14 -1
-21 -9 -7 -8 -16 -12 -22 -9 -5 3 -14 1 -21 -4 -7 -5 -46 -24 -87 -42 -41 -17
-97 -42 -125 -55 -27 -12 -120 -53 -205 -90 -85 -37 -183 -81 -218 -96 -34
-16 -64 -29 -66 -29 -2 0 -39 -17 -83 -37 -43 -21 -80 -38 -83 -38 -24 -3
-100 -40 -100 -48 0 -6 -3 -7 -6 -4 -4 3 -16 1 -28 -5 -11 -7 -27 -13 -34 -14
-7 -1 -35 -14 -62 -28 -28 -14 -52 -26 -55 -27 -7 0 -67 -25 -141 -59 -35 -17
-66 -30 -69 -30 -2 0 -32 -13 -67 -29 -35 -16 -73 -32 -85 -36 -13 -3 -23 -10
-23 -14 0 -4 -6 -8 -12 -8 -13 0 -55 -18 -168 -71 -30 -14 -61 -25 -67 -25 -7
0 -13 -3 -13 -7 0 -3 -17 -12 -37 -20 -47 -17 -43 -16 -70 -25 -13 -4 -23 -11
-23 -14 0 -4 -6 -8 -12 -8 -7 0 -44 -14 -83 -32 -38 -18 -88 -40 -110 -49 -22
-8 -49 -21 -60 -29 -11 -7 -27 -13 -37 -13 -10 0 -18 -4 -18 -10 0 -5 -9 -10
-20 -10 -11 0 -20 -5 -20 -12 0 -6 -3 -9 -6 -5 -6 5 -33 -5 -139 -53 -82 -37
-147 -66 -192 -85 -26 -12 -39 -23 -36 -32 3 -7 9 -13 13 -13 5 0 21 -5 37
-12 15 -6 30 -12 33 -13 5 -2 31 -13 120 -52 30 -14 64 -29 75 -33 82 -36 127
-55 173 -76 29 -13 55 -24 57 -24 2 0 28 -11 57 -24 29 -14 87 -39 128 -56 41
-18 98 -42 125 -55 28 -12 77 -33 110 -46 33 -13 62 -27 63 -31 2 -5 9 -8 16
-8 7 0 26 -6 42 -14 16 -8 99 -44 184 -81 188 -81 204 -88 210 -90 3 0 15 -6
26 -13 12 -6 24 -8 28 -5 3 3 6 2 6 -3 0 -6 17 -16 38 -23 20 -8 55 -22 77
-32 173 -78 271 -119 282 -119 7 0 13 -4 13 -10 0 -5 7 -10 15 -10 8 0 23 -4
33 -9 9 -5 33 -16 52 -24 19 -8 55 -24 80 -35 54 -24 275 -120 310 -135 14 -5
28 -10 33 -9 4 1 7 -3 7 -8 0 -5 3 -9 8 -8 7 1 33 -9 105 -41 23 -10 76 -33
117 -51 41 -18 91 -39 110 -47 42 -19 102 -45 150 -65 19 -9 51 -23 70 -32
l35 -16 0 -438 0 -439 -30 13 c-16 7 -48 21 -70 32 -22 11 -58 27 -80 37 -22
10 -80 37 -130 60 -49 24 -117 55 -150 70 -80 37 -203 94 -239 111 -16 8 -33
14 -38 14 -6 0 -23 9 -39 21 -16 11 -29 18 -29 15 0 -3 -21 5 -47 19 -27 13
-79 38 -118 55 -38 17 -97 44 -130 60 -93 44 -205 96 -260 120 -27 12 -76 35
-109 51 -32 16 -63 29 -69 29 -6 0 -18 7 -27 15 -10 9 -26 17 -36 19 -11 3
-77 32 -149 66 -71 34 -155 73 -185 87 -30 14 -72 33 -93 44 -22 10 -45 19
-52 19 -7 0 -18 7 -25 15 -7 9 -15 14 -17 11 -3 -2 -45 16 -94 40 -49 24 -91
44 -94 44 -3 0 -40 17 -83 38 -79 40 -85 42 -114 50 -10 2 -18 9 -18 15 0 6
-3 8 -6 5 -3 -3 -37 9 -75 28 -38 19 -72 34 -75 34 -3 0 -41 18 -85 40 -43 21
-79 37 -79 33 0 -3 -8 1 -17 10 -10 8 -30 19 -45 22 -16 4 -28 12 -28 18 0 6
-3 8 -6 5 -3 -3 -56 18 -117 47 -62 29 -137 64 -167 78 -30 14 -86 40 -125 58
-38 18 -72 34 -75 34 -5 1 -40 17 -185 86 -49 23 -92 43 -95 44 -8 2 -86 38
-180 82 -47 22 -95 43 -107 47 -19 6 -23 15 -24 54 0 57 0 616 0 654 1 23 9
31 49 49 48 22 111 51 262 121 166 78 189 88 199 88 6 0 11 4 11 8 0 5 6 9 13
9 11 1 223 98 278 128 14 8 29 12 33 8 3 -3 6 -1 6 6 0 7 5 9 10 6 6 -3 10 -1
10 4 0 6 9 11 20 11 11 0 20 5 20 10 0 6 3 9 8 8 4 -1 23 5 42 14 41 18 290
134 400 185 108 51 188 87 245 113 28 13 93 43 145 67 52 25 115 54 140 65 25
11 67 31 94 44 28 13 55 24 62 24 6 0 17 7 24 15 7 9 15 13 17 11 3 -3 24 6
48 19 23 13 45 21 49 18 3 -4 6 -1 6 5 0 7 3 11 8 10 7 -1 54 20 222 100 52
24 101 45 108 45 6 0 12 4 12 8 0 4 9 11 21 14 11 4 41 16 65 26 24 11 47 19
50 19 4 -1 10 2 13 7 3 5 35 22 71 38 36 15 108 48 160 73 195 91 257 119 313
142 31 13 57 27 57 32 0 4 6 8 13 8 7 0 32 9 55 20 22 11 45 20 51 20 5 0 11
4 13 9 2 5 12 11 23 13 11 1 23 7 26 11 3 5 12 10 20 11 8 1 48 19 89 38 77
37 137 65 295 137 50 23 97 45 105 50 8 6 19 9 25 7 6 -2 10 -160 10 -436z"/>
</g>
</svg>
